<svg width="107" height="91" viewBox="0 0 107 91" fill="none" xmlns="http://www.w3.org/2000/svg">
<path d="M66.148 66.632V67H57.546V66.632L60.352 66.264V54.534C60.352 53.2767 60.3213 52.372 60.26 51.82C60.1987 51.2373 60.076 50.762 59.892 50.394C59.6467 49.8727 59.248 49.474 58.696 49.198C58.144 48.8913 57.5 48.738 56.764 48.738C55.1693 48.738 53.7893 49.3973 52.624 50.716V66.264L55.43 66.632V67H46.828V66.632L49.634 66.264V36.962L46.92 35.95V35.628L52.256 33.834H52.624V50.026C53.5747 49.0447 54.556 48.3087 55.568 47.818C56.6107 47.2967 57.638 47.036 58.65 47.036C59.57 47.036 60.398 47.2353 61.134 47.634C61.9007 48.0327 62.468 48.5847 62.836 49.29C63.0507 49.6887 63.1887 50.2407 63.25 50.946C63.3113 51.6207 63.342 52.8167 63.342 54.534V66.264L66.148 66.632Z" fill="white"/>
<path d="M54.98 40.1C53.6733 40.7933 52.1933 41.14 50.54 41.14C49.2867 41.14 48.0733 40.94 46.9 40.54C45.7267 40.1667 44.7267 39.6333 43.9 38.94L43.06 41.14H42.54L42.02 31.58L42.38 31.5C42.78 33.3133 43.18 34.7267 43.58 35.74C44.0067 36.7533 44.5533 37.6333 45.22 38.38C46.58 39.9 48.38 40.66 50.62 40.66C52.54 40.66 54.0333 40.1667 55.1 39.18C56.1933 38.1667 56.74 36.8067 56.74 35.1C56.74 33.9 56.4467 32.8867 55.86 32.06C55.3 31.2333 54.5267 30.5267 53.54 29.94C52.5533 29.3533 51.1667 28.6733 49.38 27.9C47.9133 27.26 46.6867 26.6333 45.7 26.02C44.7133 25.38 43.8867 24.5667 43.22 23.58C42.58 22.5667 42.26 21.34 42.26 19.9C42.26 18.4333 42.6067 17.1267 43.3 15.98C44.02 14.8067 44.9933 13.9 46.22 13.26C47.4733 12.5933 48.8867 12.26 50.46 12.26C51.5533 12.26 52.5667 12.4467 53.5 12.82C54.46 13.1933 55.4867 13.8067 56.58 14.66L57.54 12.74H58.06L58.46 21.46L58.06 21.58C57.6333 19.7933 57.0867 18.22 56.42 16.86C55.0867 14.1133 53.0467 12.74 50.3 12.74C48.6467 12.74 47.3267 13.22 46.34 14.18C45.3533 15.1133 44.86 16.3933 44.86 18.02C44.86 19.1933 45.1267 20.18 45.66 20.98C46.22 21.78 46.98 22.4733 47.94 23.06C48.9267 23.6467 50.3133 24.3533 52.1 25.18C53.7 25.9 54.98 26.58 55.94 27.22C56.9267 27.86 57.7133 28.66 58.3 29.62C58.9133 30.5533 59.22 31.7133 59.22 33.1C59.22 34.6467 58.8467 36.0333 58.1 37.26C57.3533 38.46 56.3133 39.4067 54.98 40.1Z" fill="white"/>
<path d="M5.53711 85.8438C5.53711 85.6445 5.50586 85.4688 5.44336 85.3164C5.38477 85.1602 5.2793 85.0195 5.12695 84.8945C4.97852 84.7695 4.77148 84.6504 4.50586 84.5371C4.24414 84.4238 3.91211 84.3086 3.50977 84.1914C3.08789 84.0664 2.70703 83.9277 2.36719 83.7754C2.02734 83.6191 1.73633 83.4414 1.49414 83.2422C1.25195 83.043 1.06641 82.8145 0.9375 82.5566C0.808594 82.2988 0.744141 82.0039 0.744141 81.6719C0.744141 81.3398 0.8125 81.0332 0.949219 80.752C1.08594 80.4707 1.28125 80.2266 1.53516 80.0195C1.79297 79.8086 2.09961 79.6445 2.45508 79.5273C2.81055 79.4102 3.20703 79.3516 3.64453 79.3516C4.28516 79.3516 4.82812 79.4746 5.27344 79.7207C5.72266 79.9629 6.06445 80.2812 6.29883 80.6758C6.5332 81.0664 6.65039 81.4844 6.65039 81.9297H5.52539C5.52539 81.6094 5.45703 81.3262 5.32031 81.0801C5.18359 80.8301 4.97656 80.6348 4.69922 80.4941C4.42188 80.3496 4.07031 80.2773 3.64453 80.2773C3.24219 80.2773 2.91016 80.3379 2.64844 80.459C2.38672 80.5801 2.19141 80.7441 2.0625 80.9512C1.9375 81.1582 1.875 81.3945 1.875 81.6602C1.875 81.8398 1.91211 82.0039 1.98633 82.1523C2.06445 82.2969 2.18359 82.4316 2.34375 82.5566C2.50781 82.6816 2.71484 82.7969 2.96484 82.9023C3.21875 83.0078 3.52148 83.1094 3.87305 83.207C4.35742 83.3438 4.77539 83.4961 5.12695 83.6641C5.47852 83.832 5.76758 84.0215 5.99414 84.2324C6.22461 84.4395 6.39453 84.6758 6.50391 84.9414C6.61719 85.2031 6.67383 85.5 6.67383 85.832C6.67383 86.1797 6.60352 86.4941 6.46289 86.7754C6.32227 87.0566 6.12109 87.2969 5.85938 87.4961C5.59766 87.6953 5.2832 87.8496 4.91602 87.959C4.55273 88.0645 4.14648 88.1172 3.69727 88.1172C3.30273 88.1172 2.91406 88.0625 2.53125 87.9531C2.15234 87.8438 1.80664 87.6797 1.49414 87.4609C1.18555 87.2422 0.9375 86.9727 0.75 86.6523C0.566406 86.3281 0.474609 85.9531 0.474609 85.5273H1.59961C1.59961 85.8203 1.65625 86.0723 1.76953 86.2832C1.88281 86.4902 2.03711 86.6621 2.23242 86.7988C2.43164 86.9355 2.65625 87.0371 2.90625 87.1035C3.16016 87.166 3.42383 87.1973 3.69727 87.1973C4.0918 87.1973 4.42578 87.1426 4.69922 87.0332C4.97266 86.9238 5.17969 86.7676 5.32031 86.5645C5.46484 86.3613 5.53711 86.1211 5.53711 85.8438ZM9.0293 82.9199V88H7.93945V81.6602H8.9707L9.0293 82.9199ZM8.80664 84.5898L8.30273 84.5723C8.30664 84.1387 8.36328 83.7383 8.47266 83.3711C8.58203 83 8.74414 82.6777 8.95898 82.4043C9.17383 82.1309 9.44141 81.9199 9.76172 81.7715C10.082 81.6191 10.4531 81.543 10.875 81.543C11.1719 81.543 11.4453 81.5859 11.6953 81.6719C11.9453 81.7539 12.1621 81.8848 12.3457 82.0645C12.5293 82.2441 12.6719 82.4746 12.7734 82.7559C12.875 83.0371 12.9258 83.377 12.9258 83.7754V88H11.8418V83.8281C11.8418 83.4961 11.7852 83.2305 11.6719 83.0312C11.5625 82.832 11.4062 82.6875 11.2031 82.5977C11 82.5039 10.7617 82.457 10.4883 82.457C10.168 82.457 9.90039 82.5137 9.68555 82.627C9.4707 82.7402 9.29883 82.8965 9.16992 83.0957C9.04102 83.2949 8.94727 83.5234 8.88867 83.7812C8.83398 84.0352 8.80664 84.3047 8.80664 84.5898ZM12.9141 83.9922L12.1875 84.2148C12.1914 83.8672 12.248 83.5332 12.3574 83.2129C12.4707 82.8926 12.6328 82.6074 12.8438 82.3574C13.0586 82.1074 13.3223 81.9102 13.6348 81.7656C13.9473 81.6172 14.3047 81.543 14.707 81.543C15.0469 81.543 15.3477 81.5879 15.6094 81.6777C15.875 81.7676 16.0977 81.9062 16.2773 82.0938C16.4609 82.2773 16.5996 82.5137 16.6934 82.8027C16.7871 83.0918 16.834 83.4355 16.834 83.834V88H15.7441V83.8223C15.7441 83.4668 15.6875 83.1914 15.5742 82.9961C15.4648 82.7969 15.3086 82.6582 15.1055 82.5801C14.9062 82.498 14.668 82.457 14.3906 82.457C14.1523 82.457 13.9414 82.498 13.7578 82.5801C13.5742 82.6621 13.4199 82.7754 13.2949 82.9199C13.1699 83.0605 13.0742 83.2227 13.0078 83.4062C12.9453 83.5898 12.9141 83.7852 12.9141 83.9922ZM22.2129 86.916V83.6523C22.2129 83.4023 22.1621 83.1855 22.0605 83.002C21.9629 82.8145 21.8145 82.6699 21.6152 82.5684C21.416 82.4668 21.1699 82.416 20.877 82.416C20.6035 82.416 20.3633 82.4629 20.1562 82.5566C19.9531 82.6504 19.793 82.7734 19.6758 82.9258C19.5625 83.0781 19.5059 83.2422 19.5059 83.418H18.4219C18.4219 83.1914 18.4805 82.9668 18.5977 82.7441C18.7148 82.5215 18.8828 82.3203 19.1016 82.1406C19.3242 81.957 19.5898 81.8125 19.8984 81.707C20.2109 81.5977 20.5586 81.543 20.9414 81.543C21.4023 81.543 21.8086 81.6211 22.1602 81.7773C22.5156 81.9336 22.793 82.1699 22.9922 82.4863C23.1953 82.7988 23.2969 83.1914 23.2969 83.6641V86.6172C23.2969 86.8281 23.3145 87.0527 23.3496 87.291C23.3887 87.5293 23.4453 87.7344 23.5195 87.9062V88H22.3887C22.334 87.875 22.291 87.709 22.2598 87.502C22.2285 87.291 22.2129 87.0957 22.2129 86.916ZM22.4004 84.1562L22.4121 84.918H21.3164C21.0078 84.918 20.7324 84.9434 20.4902 84.9941C20.248 85.041 20.0449 85.1133 19.8809 85.2109C19.7168 85.3086 19.5918 85.4316 19.5059 85.5801C19.4199 85.7246 19.377 85.8945 19.377 86.0898C19.377 86.2891 19.4219 86.4707 19.5117 86.6348C19.6016 86.7988 19.7363 86.9297 19.916 87.0273C20.0996 87.1211 20.3242 87.168 20.5898 87.168C20.9219 87.168 21.2148 87.0977 21.4688 86.957C21.7227 86.8164 21.9238 86.6445 22.0723 86.4414C22.2246 86.2383 22.3066 86.041 22.3184 85.8496L22.7812 86.3711C22.7539 86.5352 22.6797 86.7168 22.5586 86.916C22.4375 87.1152 22.2754 87.3066 22.0723 87.4902C21.873 87.6699 21.6348 87.8203 21.3574 87.9414C21.084 88.0586 20.7754 88.1172 20.4316 88.1172C20.002 88.1172 19.625 88.0332 19.3008 87.8652C18.9805 87.6973 18.7305 87.4727 18.5508 87.1914C18.375 86.9062 18.2871 86.5879 18.2871 86.2363C18.2871 85.8965 18.3535 85.5977 18.4863 85.3398C18.6191 85.0781 18.8105 84.8613 19.0605 84.6895C19.3105 84.5137 19.6113 84.3809 19.9629 84.291C20.3145 84.2012 20.707 84.1562 21.1406 84.1562H22.4004ZM26.1797 79V88H25.0898V79H26.1797ZM29.0977 79V88H28.0078V79H29.0977ZM36.4453 88.1172C36.0039 88.1172 35.6035 88.043 35.2441 87.8945C34.8887 87.7422 34.582 87.5293 34.3242 87.2559C34.0703 86.9824 33.875 86.6582 33.7383 86.2832C33.6016 85.9082 33.5332 85.498 33.5332 85.0527V84.8066C33.5332 84.291 33.6094 83.832 33.7617 83.4297C33.9141 83.0234 34.1211 82.6797 34.3828 82.3984C34.6445 82.1172 34.9414 81.9043 35.2734 81.7598C35.6055 81.6152 35.9492 81.543 36.3047 81.543C36.7578 81.543 37.1484 81.6211 37.4766 81.7773C37.8086 81.9336 38.0801 82.1523 38.291 82.4336C38.502 82.7109 38.6582 83.0391 38.7598 83.418C38.8613 83.793 38.9121 84.2031 38.9121 84.6484V85.1348H34.1777V84.25H37.8281V84.168C37.8125 83.8867 37.7539 83.6133 37.6523 83.3477C37.5547 83.082 37.3984 82.8633 37.1836 82.6914C36.9688 82.5195 36.6758 82.4336 36.3047 82.4336C36.0586 82.4336 35.832 82.4863 35.625 82.5918C35.418 82.6934 35.2402 82.8457 35.0918 83.0488C34.9434 83.252 34.8281 83.5 34.7461 83.793C34.6641 84.0859 34.623 84.4238 34.623 84.8066V85.0527C34.623 85.3535 34.6641 85.6367 34.7461 85.9023C34.832 86.1641 34.9551 86.3945 35.1152 86.5938C35.2793 86.793 35.4766 86.9492 35.707 87.0625C35.9414 87.1758 36.207 87.2324 36.5039 87.2324C36.8867 87.2324 37.2109 87.1543 37.4766 86.998C37.7422 86.8418 37.9746 86.6328 38.1738 86.3711L38.8301 86.8926C38.6934 87.0996 38.5195 87.2969 38.3086 87.4844C38.0977 87.6719 37.8379 87.8242 37.5293 87.9414C37.2246 88.0586 36.8633 88.1172 36.4453 88.1172ZM40.9102 81.6602L42.2988 83.9688L43.7051 81.6602H44.9766L42.9023 84.7891L45.041 88H43.7871L42.3223 85.6211L40.8574 88H39.5977L41.7305 84.7891L39.6621 81.6602H40.9102ZM47.2148 79V88H46.1309V79H47.2148ZM46.957 84.5898L46.5059 84.5723C46.5098 84.1387 46.5742 83.7383 46.6992 83.3711C46.8242 83 47 82.6777 47.2266 82.4043C47.4531 82.1309 47.7227 81.9199 48.0352 81.7715C48.3516 81.6191 48.7012 81.543 49.084 81.543C49.3965 81.543 49.6777 81.5859 49.9277 81.6719C50.1777 81.7539 50.3906 81.8867 50.5664 82.0703C50.7461 82.2539 50.8828 82.4922 50.9766 82.7852C51.0703 83.0742 51.1172 83.4277 51.1172 83.8457V88H50.0273V83.834C50.0273 83.502 49.9785 83.2363 49.8809 83.0371C49.7832 82.834 49.6406 82.6875 49.4531 82.5977C49.2656 82.5039 49.0352 82.457 48.7617 82.457C48.4922 82.457 48.2461 82.5137 48.0234 82.627C47.8047 82.7402 47.6152 82.8965 47.4551 83.0957C47.2988 83.2949 47.1758 83.5234 47.0859 83.7812C47 84.0352 46.957 84.3047 46.957 84.5898ZM53.918 81.6602V88H52.8281V81.6602H53.918ZM52.7461 79.9785C52.7461 79.8027 52.7988 79.6543 52.9043 79.5332C53.0137 79.4121 53.1738 79.3516 53.3848 79.3516C53.5918 79.3516 53.75 79.4121 53.8594 79.5332C53.9727 79.6543 54.0293 79.8027 54.0293 79.9785C54.0293 80.1465 53.9727 80.291 53.8594 80.4121C53.75 80.5293 53.5918 80.5879 53.3848 80.5879C53.1738 80.5879 53.0137 80.5293 52.9043 80.4121C52.7988 80.291 52.7461 80.1465 52.7461 79.9785ZM55.6523 79H56.7422V86.7695L56.6484 88H55.6523V79ZM61.0254 84.7773V84.9004C61.0254 85.3613 60.9707 85.7891 60.8613 86.1836C60.752 86.5742 60.5918 86.9141 60.3809 87.2031C60.1699 87.4922 59.9121 87.7168 59.6074 87.877C59.3027 88.0371 58.9531 88.1172 58.5586 88.1172C58.1562 88.1172 57.8027 88.0488 57.498 87.9121C57.1973 87.7715 56.9434 87.5703 56.7363 87.3086C56.5293 87.0469 56.3633 86.7305 56.2383 86.3594C56.1172 85.9883 56.0332 85.5703 55.9863 85.1055V84.5664C56.0332 84.0977 56.1172 83.6777 56.2383 83.3066C56.3633 82.9355 56.5293 82.6191 56.7363 82.3574C56.9434 82.0918 57.1973 81.8906 57.498 81.7539C57.7988 81.6133 58.1484 81.543 58.5469 81.543C58.9453 81.543 59.2988 81.6211 59.6074 81.7773C59.916 81.9297 60.1738 82.1484 60.3809 82.4336C60.5918 82.7188 60.752 83.0605 60.8613 83.459C60.9707 83.8535 61.0254 84.293 61.0254 84.7773ZM59.9355 84.9004V84.7773C59.9355 84.4609 59.9062 84.1641 59.8477 83.8867C59.7891 83.6055 59.6953 83.3594 59.5664 83.1484C59.4375 82.9336 59.2676 82.7656 59.0566 82.6445C58.8457 82.5195 58.5859 82.457 58.2773 82.457C58.0039 82.457 57.7656 82.5039 57.5625 82.5977C57.3633 82.6914 57.1934 82.8184 57.0527 82.9785C56.9121 83.1348 56.7969 83.3145 56.707 83.5176C56.6211 83.7168 56.5566 83.9238 56.5137 84.1387V85.5508C56.5762 85.8242 56.6777 86.0879 56.8184 86.3418C56.9629 86.5918 57.1543 86.7969 57.3926 86.957C57.6348 87.1172 57.9336 87.1973 58.2891 87.1973C58.582 87.1973 58.832 87.1387 59.0391 87.0215C59.25 86.9004 59.4199 86.7344 59.5488 86.5234C59.6816 86.3125 59.7793 86.0684 59.8418 85.791C59.9043 85.5137 59.9355 85.2168 59.9355 84.9004ZM63.5742 81.6602V88H62.4844V81.6602H63.5742ZM62.4023 79.9785C62.4023 79.8027 62.4551 79.6543 62.5605 79.5332C62.6699 79.4121 62.8301 79.3516 63.041 79.3516C63.248 79.3516 63.4062 79.4121 63.5156 79.5332C63.6289 79.6543 63.6855 79.8027 63.6855 79.9785C63.6855 80.1465 63.6289 80.291 63.5156 80.4121C63.4062 80.5293 63.248 80.5879 63.041 80.5879C62.8301 80.5879 62.6699 80.5293 62.5605 80.4121C62.4551 80.291 62.4023 80.1465 62.4023 79.9785ZM67.9688 81.6602V82.4922H64.541V81.6602H67.9688ZM65.7012 80.1191H66.7852V86.4297C66.7852 86.6445 66.8184 86.8066 66.8848 86.916C66.9512 87.0254 67.0371 87.0977 67.1426 87.1328C67.248 87.168 67.3613 87.1855 67.4824 87.1855C67.5723 87.1855 67.666 87.1777 67.7637 87.1621C67.8652 87.1426 67.9414 87.127 67.9922 87.1152L67.998 88C67.9121 88.0273 67.7988 88.0527 67.6582 88.0762C67.5215 88.1035 67.3555 88.1172 67.1602 88.1172C66.8945 88.1172 66.6504 88.0645 66.4277 87.959C66.2051 87.8535 66.0273 87.6777 65.8945 87.4316C65.7656 87.1816 65.7012 86.8457 65.7012 86.4238V80.1191ZM70.418 81.6602V88H69.3281V81.6602H70.418ZM69.2461 79.9785C69.2461 79.8027 69.2988 79.6543 69.4043 79.5332C69.5137 79.4121 69.6738 79.3516 69.8848 79.3516C70.0918 79.3516 70.25 79.4121 70.3594 79.5332C70.4727 79.6543 70.5293 79.8027 70.5293 79.9785C70.5293 80.1465 70.4727 80.291 70.3594 80.4121C70.25 80.5293 70.0918 80.5879 69.8848 80.5879C69.6738 80.5879 69.5137 80.5293 69.4043 80.4121C69.2988 80.291 69.2461 80.1465 69.2461 79.9785ZM71.8711 84.9004V84.7656C71.8711 84.3086 71.9375 83.8848 72.0703 83.4941C72.2031 83.0996 72.3945 82.7578 72.6445 82.4688C72.8945 82.1758 73.1973 81.9492 73.5527 81.7891C73.9082 81.625 74.3066 81.543 74.748 81.543C75.1934 81.543 75.5938 81.625 75.9492 81.7891C76.3086 81.9492 76.6133 82.1758 76.8633 82.4688C77.1172 82.7578 77.3105 83.0996 77.4434 83.4941C77.5762 83.8848 77.6426 84.3086 77.6426 84.7656V84.9004C77.6426 85.3574 77.5762 85.7812 77.4434 86.1719C77.3105 86.5625 77.1172 86.9043 76.8633 87.1973C76.6133 87.4863 76.3105 87.7129 75.9551 87.877C75.6035 88.0371 75.2051 88.1172 74.7598 88.1172C74.3145 88.1172 73.9141 88.0371 73.5586 87.877C73.2031 87.7129 72.8984 87.4863 72.6445 87.1973C72.3945 86.9043 72.2031 86.5625 72.0703 86.1719C71.9375 85.7812 71.8711 85.3574 71.8711 84.9004ZM72.9551 84.7656V84.9004C72.9551 85.2168 72.9922 85.5156 73.0664 85.7969C73.1406 86.0742 73.252 86.3203 73.4004 86.5352C73.5527 86.75 73.7422 86.9199 73.9688 87.0449C74.1953 87.166 74.459 87.2266 74.7598 87.2266C75.0566 87.2266 75.3164 87.166 75.5391 87.0449C75.7656 86.9199 75.9531 86.75 76.1016 86.5352C76.25 86.3203 76.3613 86.0742 76.4355 85.7969C76.5137 85.5156 76.5527 85.2168 76.5527 84.9004V84.7656C76.5527 84.4531 76.5137 84.1582 76.4355 83.8809C76.3613 83.5996 76.248 83.3516 76.0957 83.1367C75.9473 82.918 75.7598 82.7461 75.5332 82.6211C75.3105 82.4961 75.0488 82.4336 74.748 82.4336C74.4512 82.4336 74.1895 82.4961 73.9629 82.6211C73.7402 82.7461 73.5527 82.918 73.4004 83.1367C73.252 83.3516 73.1406 83.5996 73.0664 83.8809C72.9922 84.1582 72.9551 84.4531 72.9551 84.7656ZM80.0859 83.0137V88H79.002V81.6602H80.0273L80.0859 83.0137ZM79.8281 84.5898L79.377 84.5723C79.3809 84.1387 79.4453 83.7383 79.5703 83.3711C79.6953 83 79.8711 82.6777 80.0977 82.4043C80.3242 82.1309 80.5938 81.9199 80.9062 81.7715C81.2227 81.6191 81.5723 81.543 81.9551 81.543C82.2676 81.543 82.5488 81.5859 82.7988 81.6719C83.0488 81.7539 83.2617 81.8867 83.4375 82.0703C83.6172 82.2539 83.7539 82.4922 83.8477 82.7852C83.9414 83.0742 83.9883 83.4277 83.9883 83.8457V88H82.8984V83.834C82.8984 83.502 82.8496 83.2363 82.752 83.0371C82.6543 82.834 82.5117 82.6875 82.3242 82.5977C82.1367 82.5039 81.9062 82.457 81.6328 82.457C81.3633 82.457 81.1172 82.5137 80.8945 82.627C80.6758 82.7402 80.4863 82.8965 80.3262 83.0957C80.1699 83.2949 80.0469 83.5234 79.957 83.7812C79.8711 84.0352 79.8281 84.3047 79.8281 84.5898ZM89.6953 79V88H88.6113V79H89.6953ZM89.4375 84.5898L88.9863 84.5723C88.9902 84.1387 89.0547 83.7383 89.1797 83.3711C89.3047 83 89.4805 82.6777 89.707 82.4043C89.9336 82.1309 90.2031 81.9199 90.5156 81.7715C90.832 81.6191 91.1816 81.543 91.5645 81.543C91.877 81.543 92.1582 81.5859 92.4082 81.6719C92.6582 81.7539 92.8711 81.8867 93.0469 82.0703C93.2266 82.2539 93.3633 82.4922 93.457 82.7852C93.5508 83.0742 93.5977 83.4277 93.5977 83.8457V88H92.5078V83.834C92.5078 83.502 92.459 83.2363 92.3613 83.0371C92.2637 82.834 92.1211 82.6875 91.9336 82.5977C91.7461 82.5039 91.5156 82.457 91.2422 82.457C90.9727 82.457 90.7266 82.5137 90.5039 82.627C90.2852 82.7402 90.0957 82.8965 89.9355 83.0957C89.7793 83.2949 89.6562 83.5234 89.5664 83.7812C89.4805 84.0352 89.4375 84.3047 89.4375 84.5898ZM98.959 86.916V83.6523C98.959 83.4023 98.9082 83.1855 98.8066 83.002C98.709 82.8145 98.5605 82.6699 98.3613 82.5684C98.1621 82.4668 97.916 82.416 97.623 82.416C97.3496 82.416 97.1094 82.4629 96.9023 82.5566C96.6992 82.6504 96.5391 82.7734 96.4219 82.9258C96.3086 83.0781 96.252 83.2422 96.252 83.418H95.168C95.168 83.1914 95.2266 82.9668 95.3438 82.7441C95.4609 82.5215 95.6289 82.3203 95.8477 82.1406C96.0703 81.957 96.3359 81.8125 96.6445 81.707C96.957 81.5977 97.3047 81.543 97.6875 81.543C98.1484 81.543 98.5547 81.6211 98.9062 81.7773C99.2617 81.9336 99.5391 82.1699 99.7383 82.4863C99.9414 82.7988 100.043 83.1914 100.043 83.6641V86.6172C100.043 86.8281 100.061 87.0527 100.096 87.291C100.135 87.5293 100.191 87.7344 100.266 87.9062V88H99.1348C99.0801 87.875 99.0371 87.709 99.0059 87.502C98.9746 87.291 98.959 87.0957 98.959 86.916ZM99.1465 84.1562L99.1582 84.918H98.0625C97.7539 84.918 97.4785 84.9434 97.2363 84.9941C96.9941 85.041 96.791 85.1133 96.627 85.2109C96.4629 85.3086 96.3379 85.4316 96.252 85.5801C96.166 85.7246 96.123 85.8945 96.123 86.0898C96.123 86.2891 96.168 86.4707 96.2578 86.6348C96.3477 86.7988 96.4824 86.9297 96.6621 87.0273C96.8457 87.1211 97.0703 87.168 97.3359 87.168C97.668 87.168 97.9609 87.0977 98.2148 86.957C98.4688 86.8164 98.6699 86.6445 98.8184 86.4414C98.9707 86.2383 99.0527 86.041 99.0645 85.8496L99.5273 86.3711C99.5 86.5352 99.4258 86.7168 99.3047 86.916C99.1836 87.1152 99.0215 87.3066 98.8184 87.4902C98.6191 87.6699 98.3809 87.8203 98.1035 87.9414C97.8301 88.0586 97.5215 88.1172 97.1777 88.1172C96.748 88.1172 96.3711 88.0332 96.0469 87.8652C95.7266 87.6973 95.4766 87.4727 95.2969 87.1914C95.1211 86.9062 95.0332 86.5879 95.0332 86.2363C95.0332 85.8965 95.0996 85.5977 95.2324 85.3398C95.3652 85.0781 95.5566 84.8613 95.8066 84.6895C96.0566 84.5137 96.3574 84.3809 96.709 84.291C97.0605 84.2012 97.4531 84.1562 97.8867 84.1562H99.1465ZM102.926 79V88H101.836V79H102.926ZM105.844 79V88H104.754V79H105.844Z" fill="white" fill-opacity="0.5"/>
</svg>
